<svg xmlns="http://www.w3.org/2000/svg" width="86" height="26"><path d="M17.28 14.008c-1.589 1.27-3.685 1.904-6.288 1.904h-4.8c-.235 0-.352.117-.352.352v8c0 .491-.277.736-.832.736H.912c-.256 0-.432-.053-.528-.16-.096-.107-.144-.267-.144-.48V1.864c0-.405.17-.608.512-.608h9.6c1.771 0 3.354.272 4.752.816 1.397.544 2.506 1.371 3.328 2.479.821 1.109 1.232 2.476 1.232 4.097 0 2.304-.795 4.091-2.384 5.36zm-4.432-7.92c-.704-.555-1.654-.832-2.848-.832H6.448c-.214 0-.368.043-.464.128-.096.086-.144.235-.144.448v5.472c0 .214.032.368.096.464.064.096.181.144.352.144h3.936c1.13 0 2.026-.299 2.688-.896.661-.597.992-1.418.992-2.464 0-1.088-.352-1.909-1.056-2.464zm15.36-4.832c.341 0 .512.192.512.576v22.4c0 .277-.064.475-.192.592s-.352.176-.672.176h-4.032c-.256 0-.438-.053-.544-.16-.107-.106-.16-.276-.16-.512V1.864c0-.405.17-.608.512-.608h4.576zm24.384 0c.277 0 .416.16.416.48v22.752a.46.46 0 01-.176.368.663.663 0 01-.433.144h-3.231c-.192 0-.342-.021-.449-.064-.106-.042-.223-.148-.352-.319L38.16 10.28c-.086-.106-.166-.149-.24-.128-.075.021-.112.085-.112.191v14.176c0 .172-.048.294-.144.368-.097.076-.262.113-.497.113h-3.328c-.427 0-.64-.181-.64-.544V1.864c0-.405.192-.608.576-.608h3.872c.256 0 .437.027.544.08.106.054.234.188.384.4l9.408 13.407c.128.172.234.257.32.257.106 0 .159-.117.159-.353V1.832c0-.384.192-.576.576-.576h3.554zm9.103 22.56c-1.611-1.003-2.854-2.416-3.729-4.24s-1.312-3.941-1.312-6.353c0-2.475.458-4.64 1.376-6.496.917-1.855 2.208-3.284 3.871-4.287C63.565 1.437 65.486.935 67.662.935c1.664 0 3.185.32 4.56.961 1.377.64 2.496 1.477 3.36 2.512s1.402 2.139 1.616 3.312c.043.128.064.288.064.48 0 .234-.14.363-.416.384l-4.225.64c-.171 0-.288-.037-.352-.111-.064-.075-.117-.208-.16-.4-.214-1.109-.715-2.026-1.504-2.752-.79-.725-1.814-1.088-3.072-1.088-1.643 0-2.891.651-3.744 1.952-.854 1.302-1.279 3.371-1.279 6.208 0 2.965.447 5.099 1.344 6.399.896 1.302 2.186 1.952 3.871 1.952 1.28 0 2.305-.347 3.072-1.04.768-.692 1.27-1.563 1.504-2.607l.064-.929a.447.447 0 00.031-.191c0-.192-.117-.288-.352-.288h-3.871c-.172 0-.3-.043-.385-.128-.086-.085-.128-.225-.128-.416v-2.4c0-.298.171-.448.513-.448l8.543.032c.299 0 .528.069.688.208a.71.71 0 01.239.561V24.52c0 .15-.043.268-.127.353a.469.469 0 01-.349.127h-1.024c-.362 0-.64-.171-.832-.512l-.928-2.305c-.064-.148-.171-.138-.32.032-.746.918-1.637 1.664-2.672 2.24s-2.384.864-4.047.864c-2.156.001-4.038-.5-5.649-1.503z" fill="#15202A"/><path fill="#4C7BF3" d="M85.968 24.232c0 .277-.069.475-.208.592s-.367.176-.688.176h-3.776c-.47 0-.704-.224-.704-.672v-4.064c0-.191.049-.336.145-.432s.219-.144.367-.144h4.385c.32 0 .479.181.479.544v4z"/></svg>